<?xml version="1.0" encoding="UTF-8"?>
<svg width="51px" height="61px" viewBox="0 0 51 61" version="1.1" xmlns="http://www.w3.org/2000/svg" xmlns:xlink="http://www.w3.org/1999/xlink">
    <!-- Generator: Sketch 55.1 (78136) - https://sketchapp.com -->
    <title>Artboard</title>
    <desc>Created with Sketch.</desc>
    <g id="Artboard" stroke="none" stroke-width="1" fill="none" fill-rule="evenodd">
        <path d="M50.9950334,18.3398693 C51.0944389,16.4460784 49.7027616,14.1535948 46.7205959,11.7614379 C46.7205959,11.5620915 46.7205959,11.3627451 46.7205959,11.1633987 C46.7205959,10.6650327 46.7205959,10.1666667 46.5217849,9.76797386 C46.1241628,8.97058824 45.3289186,8.77124183 44.4342689,8.57189542 C44.7324854,6.17973856 43.1419971,5.48202614 41.6509142,4.88398693 C41.2532921,4.68464052 40.85567,4.58496732 40.4580479,4.38562092 C40.7562645,3.38888889 40.656859,2.59150327 40.2592369,1.89379085 C39.5633982,0.797385621 37.9729099,0.0996732026 36.0842049,0 C35.1895552,0 32.306795,0.0996732026 29.821657,1.19607843 C27.6347354,2.19281046 26.3424636,3.18954248 24.3543532,4.68464052 C23.9567311,4.98366013 23.559109,5.28267974 23.0620814,5.68137255 C22.6644593,5.28267974 22.4656482,4.48529412 22.2668372,3.7875817 C21.9686206,2.59150327 21.5709985,1.29575163 20.3781323,1.29575163 C20.3781323,1.29575163 20.3781323,1.29575163 20.2787267,1.29575163 C19.0858605,1.29575163 18.8870494,2.09313725 18.6882384,3.18954248 L18.6882384,3.28921569 C18.6882384,5.48202614 19.0858605,6.87745098 19.2846715,7.6748366 C19.384077,8.07352941 19.4834825,8.37254902 19.4834825,8.47222222 C19.2846715,9.16993464 18.9864549,9.66830065 18.6882384,10.1666667 C18.4894273,10.5653595 18.2906163,10.8643791 18.0918052,11.2630719 L15.3084506,11.2630719 C14.9108285,11.3627451 14.3143953,11.3627451 13.5191512,11.4624183 C8.94649709,11.8611111 4.47324854,12.3594771 4.17503197,14.3529412 C4.07562645,15.4493464 4.77146511,15.8480392 5.46730378,16.246732 C5.86492587,16.5457516 6.36195348,16.745098 6.56076453,17.2434641 C6.36195348,17.3431373 6.26254796,17.4428105 6.06373691,17.5424837 C4.87087064,18.2401961 3.08157122,19.2369281 3.08157122,20.8316993 C3.08157122,21.7287582 3.57859884,22.2271242 4.07562645,22.625817 C4.2744375,22.8251634 4.47324854,23.0245098 4.67205959,23.2238562 C3.47919331,24.8186275 3.18097674,28.2075163 4.57265407,29.9019608 C4.17503197,30.6993464 3.77740988,31.5964052 3.47919331,32.9918301 L3.47919331,34.6862745 C3.57859884,35.1846405 3.67800436,35.5833333 3.8768154,35.9820261 C4.07562645,36.380719 4.17503197,36.6797386 4.17503197,37.0784314 C4.17503197,37.7761438 3.8768154,38.5735294 3.47919331,39.2712418 C2.9821657,40.4673203 2.28632703,41.8627451 3.18097674,43.3578431 C2.9821657,43.5571895 2.78335465,43.7565359 2.5845436,43.9558824 C1.49108285,45.1519608 0.29821657,46.4477124 0,48.5408497 L0,50.0359477 C0.29821657,51.2320261 0.695838662,52.2287582 1.19286628,53.0261438 C1.09346076,53.3251634 0.994055232,53.5245098 0.894649709,53.8235294 C0.596433139,54.4215686 0.397622093,55.0196078 0.397622093,56.0163399 C0.397622093,58.3088235 1.59048837,60.003268 3.8768154,60.7009804 C4.57265407,60.9003268 5.26849273,61 5.86492587,61 C7.95244186,61 9.94055232,60.1029412 11.0340131,58.5081699 L13.3203401,58.5081699 C16.6007224,57.8104575 18.7876439,56.1160131 19.8811046,53.3251634 C19.9805102,53.125817 20.5769433,53.125817 20.9745654,53.2254902 C21.3721875,53.2254902 21.7698096,53.3251634 22.0680261,53.2254902 C26.6406802,52.5277778 29.1258183,49.9362745 29.4240349,45.4509804 C29.4240349,45.4509804 29.5234404,45.4509804 29.5234404,45.4509804 C34.2949055,45.4509804 35.2889607,41.5637255 35.8853939,37.5767974 C39.2651817,35.8823529 41.7503197,31.6960784 40.4580479,26.8120915 C41.8497253,27.3104575 43.4402136,27.0114379 44.3348633,26.2140523 C45.030702,25.5163399 45.2295131,24.5196078 44.831891,23.3235294 C47.6152456,22.3267974 50.8956279,21.3300654 50.9950334,18.3398693 Z M3.57859884,54.0228758 C3.67800436,54.0228758 3.77740988,54.122549 3.97622093,54.122549 C4.37384302,54.2222222 4.77146511,54.4215686 5.26849273,54.5212418 L7.15719767,54.5212418 C7.45541424,54.5212418 7.75363081,54.4215686 7.95244186,54.3218954 C8.05184738,54.3218954 8.05184738,54.3218954 8.1512529,54.2222222 C8.25065843,55.2189542 8.74768604,55.7173203 9.24471366,56.2156863 L9.34411918,56.3153595 C8.94649709,57.4117647 7.95244186,58.1094771 6.66017005,58.3088235 C5.16908721,58.5081699 3.67800436,57.8104575 3.08157122,56.8137255 C2.68394913,56.2156863 2.78335465,55.119281 3.57859884,54.0228758 Z M19.8811046,20.9313725 C20.0799157,21.3300654 20.0799157,22.0277778 19.9805102,22.7254902 C19.9805102,23.124183 19.9805102,23.622549 19.9805102,24.0212418 C20.0799157,24.619281 20.5769433,24.8186275 21.0739709,25.0179739 C21.272782,25.1176471 21.3721875,25.1176471 21.471593,25.2173203 C21.0739709,26.7124183 20.0799157,27.9084967 18.8870494,28.5065359 C17.8929942,29.004902 16.7001279,29.1045752 15.5072616,28.7058824 C13.9167732,28.1078431 13.4197456,26.3137255 13.3203401,23.622549 L13.3203401,23.622549 C16.6007224,20.1339869 18.5888328,19.1372549 19.7816991,19.0375817 C19.8811046,19.5359477 19.8811046,20.2336601 19.8811046,20.8316993 L19.8811046,20.9313725 L19.8811046,20.9313725 Z M44.7324854,13.3562092 C46.2235683,13.9542484 47.4164346,15.25 48.2116787,17.2434641 C47.6152456,17.1437908 47.0188125,17.1437908 46.5217849,17.0441176 C44.831891,16.8447712 43.1419971,16.6454248 41.6509142,16.246732 C42.4461584,15.0506536 43.5396192,14.253268 44.7324854,13.3562092 Z M42.5455639,13.2565359 C41.5515087,13.9542484 40.5574535,14.751634 40.1598314,16.1470588 C39.1657761,15.9477124 38.1717209,15.6486928 37.2770712,15.4493464 C36.8794491,15.3496732 36.3824215,15.1503268 35.9847994,15.0506536 C36.6806381,14.1535948 38.0723154,13.1568627 39.0663706,12.5588235 L39.4639927,12.3594771 C40.9550756,11.4624183 42.744375,10.3660131 44.4342689,10.9640523 C44.3348633,11.8611111 43.4402136,12.5588235 42.5455639,13.2565359 Z M9.04590261,22.0277778 C10.3381744,21.4297386 11.3322296,20.8316993 12.2268794,20.1339869 C12.723907,20.3333333 12.723907,21.0310458 12.723907,22.127451 L12.723907,22.2271242 C11.5310407,22.4264706 10.1393634,22.2271242 9.04590261,22.0277778 Z M31.3127398,24.4199346 C31.2133343,24.7189542 31.0145232,24.9183007 30.9151177,25.2173203 C30.4180901,24.8186275 30.020468,24.5196078 29.5234404,24.120915 C28.8276017,23.5228758 28.1317631,22.9248366 27.3365189,22.4264706 C29.0264128,20.2336601 28.7281962,15.8480392 28.1317631,13.2565359 C28.1317631,13.2565359 28.2311686,13.3562092 28.2311686,13.3562092 C28.6287907,13.5555556 29.0264128,13.8545752 29.5234404,13.9542484 C30.1198735,17.2434641 31.1139288,20.1339869 32.306795,22.7254902 C31.9091729,23.2238562 31.6109564,23.8218954 31.3127398,24.4199346 Z M12.6245014,35.6830065 C12.6245014,35.6830065 12.723907,35.5833333 12.8233125,35.5833333 C13.7179622,34.9852941 15.9048837,33.4901961 16.7001279,30.2009804 C16.7995334,30.1013072 17.1971555,30.1013072 17.4953721,30.2009804 C17.7935887,30.2009804 17.9923997,30.2009804 18.1912107,30.2009804 C19.384077,30.1013072 20.0799157,29.503268 20.7757543,29.004902 C20.8751599,29.9019608 21.3721875,30.5996732 21.7698096,31.1977124 C22.0680261,31.496732 22.2668372,31.8954248 22.4656482,32.1944444 C22.7638648,32.8921569 23.360298,34.2875817 23.2608924,34.9852941 C23.1614869,36.4803922 20.2787267,38.6732026 18.2906163,38.872549 C15.8054782,38.9722222 13.5191512,37.6764706 12.6245014,35.6830065 Z M23.4597035,31.2973856 C22.4656482,30.4003268 21.8692151,29.004902 21.9686206,27.8088235 C21.9686206,27.4101307 22.1674317,27.0114379 22.4656482,26.6127451 C22.7638648,26.2140523 22.9626759,25.7156863 22.9626759,25.2173203 C24.1555421,25.1176471 25.3484084,24.9183007 26.2430581,24.4199346 C27.4359244,25.2173203 28.5293852,26.2140523 29.6228459,27.1111111 C30.020468,27.5098039 30.4180901,27.8088235 30.8157122,28.2075163 C30.5174956,30.5 29.7222514,31.8954248 26.8394913,32.3937908 C25.1495974,32.5931373 24.0561366,31.8954248 23.4597035,31.2973856 Z M9.14530813,23.4232026 C9.64233575,23.5228758 10.0399578,23.622549 10.636391,23.622549 C10.835202,23.622549 11.1334186,23.622549 11.3322296,23.622549 C11.5310407,23.622549 11.8292573,23.622549 11.9286628,23.622549 C11.9286628,24.2205882 11.9286628,24.8186275 12.0280683,25.3169935 C9.8411468,25.6160131 8.35006395,26.8120915 6.95838662,27.8088235 C6.8589811,27.9084967 6.66017005,28.0081699 6.56076453,28.1078431 C6.26254796,27.8088235 6.06373691,27.5098039 5.96433139,27.0114379 C5.76552035,25.7156863 6.56076453,24.0212418 7.25660319,23.124183 C7.95244186,23.2238562 8.54887499,23.3235294 9.14530813,23.4232026 Z M8.35006395,28.5065359 C9.54293023,27.7091503 10.636391,26.9117647 12.3262849,26.6127451 C12.8233125,28.4068627 13.8173677,29.4035948 15.3084506,29.9019608 C14.2149898,32.9918301 11.9286628,34.9852941 8.44946947,35.8823529 C7.45541424,35.9820261 6.66017005,35.7826797 6.36195348,35.2843137 C5.5667093,34.2875817 6.26254796,32.2941176 6.66017005,30.8986928 C6.8589811,30.4003268 6.95838662,29.9019608 7.05779215,29.6029412 C7.45541424,29.2042484 7.95244186,28.9052288 8.35006395,28.5065359 Z M9.24471366,44.753268 C9.04590261,44.254902 9.04590261,43.4575163 10.3381744,41.2647059 C10.7357965,40.7663399 11.2328241,40.2679739 11.7298517,39.869281 C11.9286628,39.7696078 12.0280683,39.5702614 12.2268794,39.4705882 C12.5250959,39.1715686 12.8233125,38.9722222 13.1215291,38.6732026 C14.3143953,39.4705882 15.9048837,40.2679739 18.3900218,40.2679739 C17.9923997,41.5637255 18.3900218,43.0588235 19.5828881,44.5539216 C18.9864549,46.9460784 16.5013169,48.1421569 14.4138009,48.2418301 C12.4256904,48.2418301 10.0399578,47.3447712 9.24471366,44.753268 L9.24471366,44.753268 Z M24.1555421,33.2908497 C25.4478139,33.6895425 28.2311686,33.3905229 29.3246293,32.8921569 C29.5234404,33.5898693 29.821657,34.1879085 30.2192791,34.7859477 C30.3186846,34.8856209 30.3186846,34.9852941 30.4180901,35.0849673 C30.4180901,35.2843137 30.2192791,35.3839869 30.020468,35.4836601 C29.821657,35.5833333 29.6228459,35.6830065 29.5234404,35.8823529 C28.0323575,35.0849673 26.4418692,35.0849673 25.4478139,35.0849673 C25.1495974,35.0849673 24.7519753,35.0849673 24.6525698,35.0849673 C24.6525698,34.8856209 24.5531642,34.5866013 24.4537587,34.1879085 C24.3543532,33.8888889 24.2549477,33.5898693 24.1555421,33.2908497 Z M35.2889607,23.0245098 C34.7919331,22.7254902 34.2949055,22.4264706 33.7978779,22.3267974 C33.5990668,21.8284314 33.4002558,21.2303922 33.2014447,20.7320261 C32.5056061,18.9379085 31.8097674,17.0441176 31.4121453,14.8513072 C32.107984,15.0506536 32.7044171,15.3496732 33.3008503,15.5490196 C33.6984724,15.748366 34.1955,15.9477124 34.6925276,16.0473856 C35.0901497,17.8415033 35.9847994,19.5359477 36.6806381,21.130719 C37.0782602,22.0277778 37.4758822,22.8251634 37.7740988,23.622549 C36.7800436,23.9215686 36.0842049,23.5228758 35.2889607,23.0245098 Z M42.1479418,8.67156863 C42.1479418,8.87091503 42.0485363,9.07026144 42.0485363,9.26960784 C38.768154,10.6650327 36.1836104,12.2598039 34.2949055,14.3529412 C33.7978779,14.0539216 33.2014447,13.8545752 32.6050116,13.6552288 C32.107984,13.4558824 31.6109564,13.2565359 31.1139288,13.0571895 C33.1020392,10.1666667 37.3764767,9.36928105 41.4521032,8.57189542 L42.0485363,8.47222222 C42.0485363,8.47222222 42.0485363,8.47222222 42.0485363,8.47222222 C42.2473474,8.47222222 42.1479418,8.57189542 42.1479418,8.67156863 Z M14.2149898,20.9313725 C14.1155843,21.0310458 14.0161788,21.0310458 13.9167732,21.130719 C13.8173677,20.3333333 13.6185567,19.7352941 13.2209346,19.3366013 C13.4197456,19.1372549 13.5191512,19.0375817 13.7179622,18.8382353 C14.6126119,17.9411765 15.4078561,17.0441176 16.4019113,16.3464052 C17.3959666,18.6388889 15.8054782,19.8349673 14.2149898,20.9313725 Z M11.2328241,36.4803922 C11.3322296,36.4803922 11.4316352,36.380719 11.5310407,36.380719 C11.7298517,36.7794118 11.9286628,37.1781046 12.2268794,37.5767974 C11.9286628,37.875817 11.5310407,38.2745098 11.2328241,38.5735294 C9.8411468,39.7696078 8.44946947,41.0653595 8.05184738,43.2581699 C7.65422529,43.1584967 7.15719767,43.1584967 6.66017005,43.1584967 C6.56076453,43.1584967 6.36195348,43.1584967 6.26254796,43.1584967 C6.16314244,43.1584967 5.96433139,43.1584967 5.86492587,43.1584967 C5.06968168,41.9624183 5.46730378,40.8660131 6.06373691,39.5702614 C6.36195348,38.872549 6.66017005,38.1748366 6.75957558,37.377451 C8.35006395,37.6764706 9.94055232,36.9787582 11.2328241,36.4803922 Z M29.5234404,12.2598039 C29.2252238,12.0604575 28.8276017,11.7614379 28.4299796,11.5620915 C28.0323575,11.3627451 27.734141,11.1633987 27.4359244,10.9640523 C29.2252238,7.5751634 33.1020392,6.17973856 36.9788546,5.08333333 C38.4699375,5.78104575 39.6628038,6.47875817 40.85567,7.17647059 C35.6865828,7.7745098 32.0085785,9.46895425 29.5234404,12.2598039 Z M26.2430581,9.96732026 C25.7460305,9.76797386 25.3484084,9.26960784 25.0501918,8.87091503 C24.9507863,8.67156863 24.7519753,8.47222222 24.5531642,8.37254902 C27.0383023,5.28267974 31.3127398,2.19281046 35.8853939,2.39215686 C36.6806381,2.39215686 37.8735043,2.59150327 38.4699375,3.28921569 C33.7978779,4.18627451 28.8276017,5.78104575 26.2430581,9.96732026 Z M25.2490029,22.625817 C24.9507863,23.2238562 24.3543532,23.124183 23.360298,23.0245098 C23.0620814,23.0245098 22.6644593,22.9248366 22.2668372,22.9248366 C22.2668372,22.9248366 22.1674317,22.9248366 22.1674317,22.9248366 C22.6644593,18.3398693 21.5709985,15.0506536 20.9745654,13.2565359 C20.8751599,12.8578431 20.7757543,12.6584967 20.6763488,12.3594771 C21.1733764,11.2630719 21.6704041,10.8643791 23.1614869,9.46895425 L23.360298,9.36928105 C26.3424636,11.4624183 28.0323575,16.6454248 25.2490029,22.625817 Z M18.7876439,17.8415033 C18.5888328,17.9411765 18.2906163,17.9411765 18.0918052,17.9411765 C17.9923997,17.0441176 17.7935887,16.1470588 17.4953721,15.3496732 C17.7935887,14.9509804 18.1912107,14.6519608 18.5888328,14.3529412 C18.7876439,14.253268 18.8870494,14.1535948 19.0858605,14.0539216 C19.4834825,15.1503268 19.5828881,16.4460784 19.6822936,17.6421569 C19.2846715,17.7418301 18.9864549,17.7418301 18.7876439,17.8415033 Z M16.1036948,14.751634 C15.6066671,15.1503268 15.209045,15.6486928 14.7120174,16.0473856 C13.3203401,15.8480392 10.7357965,15.748366 9.74174127,16.6454248 L9.64233575,16.745098 L9.74174127,16.9444444 C10.1393634,17.8415033 11.0340131,17.6421569 11.8292573,17.3431373 C12.4256904,17.2434641 13.0221235,17.0441176 13.5191512,17.1437908 C13.5191512,17.2434641 13.3203401,17.4428105 12.922718,17.6421569 C12.723907,17.7418301 12.5250959,17.8415033 12.4256904,18.0408497 L12.3262849,18.1405229 C10.9346076,19.3366013 7.95244186,21.9281046 5.76552035,20.6323529 C6.06373691,19.9346405 6.8589811,19.5359477 7.65422529,19.1372549 C8.64828052,18.6388889 9.64233575,18.1405229 9.64233575,17.1437908 C9.64233575,16.246732 8.94649709,15.6486928 8.25065843,15.1503268 C8.05184738,14.9509804 7.75363081,14.8513072 7.55481976,14.6519608 C10.4375799,13.5555556 14.1155843,13.3562092 17.4953721,13.3562092 C16.9983445,13.9542484 16.5013169,14.3529412 16.1036948,14.751634 Z M2.78335465,48.1421569 C3.28038227,46.3480392 4.57265407,44.9526144 6.06373691,44.5539216 L6.16314244,44.5539216 L6.26254796,44.4542484 C6.36195348,44.3545752 6.56076453,44.3545752 6.8589811,44.3545752 C7.15719767,44.3545752 7.35600872,44.3545752 7.45541424,44.4542484 L7.55481976,44.5539216 L7.75363081,44.5539216 C8.44946947,46.3480392 9.34411918,47.7434641 10.4375799,48.7401961 C10.2387689,49.9362745 9.64233575,50.7336601 9.14530813,51.630719 C8.94649709,52.0294118 8.64828052,52.4281046 8.44946947,52.8267974 C7.25660319,53.3251634 5.06968168,53.3251634 3.97622093,52.7271242 C2.78335465,51.630719 2.38573256,49.9362745 2.78335465,48.1421569 Z M10.5369855,51.8300654 C11.0340131,51.1323529 11.6304462,50.4346405 11.7298517,49.3382353 C13.5191512,49.9362745 15.9048837,49.9362745 17.4953721,49.1388889 C18.3900218,50.5343137 18.1912107,52.3284314 17.09775,53.8235294 C15.8054782,55.5179739 13.3203401,56.8137255 11.0340131,56.0163399 C10.3381744,55.8169935 9.54293023,54.620915 9.54293023,53.8235294 C9.54293023,53.125817 10.0399578,52.5277778 10.5369855,51.8300654 Z M19.2846715,47.4444444 C19.7816991,46.746732 20.3781323,46.0490196 20.7757543,45.1519608 C20.8751599,45.1519608 20.9745654,45.251634 20.9745654,45.251634 C21.471593,45.4509804 21.9686206,45.6503268 24.5531642,45.8496732 C25.3484084,45.75 26.8394913,44.9526144 27.4359244,44.5539216 C27.734141,46.1486928 27.3365189,47.5441176 26.2430581,48.6405229 C24.7519753,50.2352941 22.0680261,50.9330065 19.4834825,50.5343137 C19.384077,49.9362745 19.0858605,49.5375817 18.8870494,49.0392157 C18.7876439,48.7401961 18.6882384,48.5408497 18.4894273,48.2418301 C18.7876439,48.0424837 18.9864549,47.7434641 19.2846715,47.4444444 Z M23.9567311,44.4542484 C22.2668372,44.5539216 20.4775378,43.6568627 19.7816991,42.4607843 C19.2846715,41.5637255 19.384077,40.6666667 20.0799157,39.6699346 C21.7698096,39.2712418 22.5650538,38.374183 23.559109,37.377451 C23.8573256,36.9787582 24.2549477,36.6797386 24.6525698,36.2810458 C25.5472195,36.5800654 26.6406802,36.7794118 27.5353299,36.879085 C27.932952,36.9787582 28.3305741,36.9787582 28.6287907,37.0784314 C28.1317631,38.0751634 27.932952,38.872549 27.8335465,39.6699346 C27.6347354,40.4673203 27.4359244,41.3643791 26.9388968,42.3611111 C26.3424636,44.1552288 24.7519753,44.4542484 23.9567311,44.4542484 Z M31.6109564,42.5604575 C30.3186846,43.2581699 28.9270072,43.0588235 28.5293852,42.9591503 C29.1258183,39.6699346 29.9210625,37.5767974 31.3127398,36.1813725 C32.0085785,36.5800654 33.0026337,36.7794118 33.8972834,36.7794118 C34.1955,40.3676471 32.8038227,41.8627451 31.6109564,42.5604575 Z M30.5174956,32.0947712 C30.5174956,31.8954248 30.7163067,31.5964052 31.0145232,31.2973856 C31.3127398,30.998366 31.6109564,30.5996732 31.8097674,30.1013072 C31.9091729,29.7026144 32.0085785,29.3039216 32.0085785,28.8055556 C32.0085785,28.5065359 32.0085785,28.2075163 32.107984,27.9084967 C32.306795,27.3104575 32.6050116,26.8120915 32.9032282,26.4133987 C33.2014447,25.9150327 33.5990668,25.5163399 33.6984724,24.9183007 C34.0960945,25.0179739 34.394311,25.2173203 34.7919331,25.4166667 C35.2889607,25.7156863 35.8853939,26.0147059 36.5812325,26.1143791 C36.7800436,26.1143791 36.9788546,26.1143791 37.2770712,26.1143791 C37.5752878,26.1143791 38.2711264,26.1143791 38.370532,26.2140523 C39.4639927,28.3071895 39.1657761,30.2009804 38.569343,31.3970588 C37.7740988,33.2908497 36.1836104,34.7859477 35.1895552,35.1846405 C34.1955,35.4836601 32.7044171,35.4836601 32.0085785,34.9852941 C31.3127398,34.4869281 30.4180901,32.6928105 30.5174956,32.0947712 Z M37.4758822,16.9444444 C37.8735043,17.0441176 38.370532,17.2434641 38.8675596,17.2434641 C39.2651817,18.6388889 40.0604258,19.5359477 40.7562645,20.5326797 C41.6509142,21.629085 42.4461584,22.7254902 42.744375,24.4199346 C39.4639927,24.5196078 38.4699375,21.9281046 37.3764767,19.1372549 C37.0782602,18.3398693 36.7800436,17.4428105 36.3824215,16.745098 C36.7800436,16.745098 37.0782602,16.8447712 37.4758822,16.9444444 Z M48.3110843,18.8382353 C47.5158401,20.1339869 45.7265407,20.5326797 43.9372413,21.0310458 C43.7384302,21.130719 43.5396192,21.130719 43.3408081,21.2303922 C42.1479418,19.9346405 41.2532921,18.8382353 40.9550756,17.8415033 C42.8437805,18.2401961 45.4283241,18.6388889 48.3110843,18.8382353 Z" id="Shape" fill="#801F08" fill-rule="nonzero"></path>
    </g>
</svg>